<svg width="48" height="48" viewBox="0 0 48 48" fill="none" xmlns="http://www.w3.org/2000/svg">
<g clip-path="url(#clip0_122:1113)">
<path d="M2.99991 3.26603C-0.77209 7.18403 -8.97646e-05 11.346 -8.97646e-05 23.99C-8.97646e-05 34.49 -1.83209 45.016 7.75591 47.494C10.7499 48.264 37.2779 48.264 40.2679 47.49C44.2599 46.46 47.5079 43.222 47.9519 37.576C48.0139 36.788 48.0139 11.206 47.9499 10.402C47.4779 4.38803 43.7759 0.922032 38.8979 0.220032C37.7799 0.0580318 37.5559 0.0100318 31.8199 3.17544e-05C11.4739 0.0100318 7.01391 -0.895968 2.99991 3.26603Z" fill="url(#paint0_linear_122:1113)"/>
<path d="M23.9961 6.27803C16.7341 6.27803 9.83812 5.63203 7.20412 12.392C6.11612 15.184 6.27412 18.81 6.27412 24.002C6.27412 28.558 6.12812 32.84 7.20412 35.61C9.83212 42.374 16.7841 41.726 23.9921 41.726C30.9461 41.726 38.1161 42.45 40.7821 35.61C41.8721 32.79 41.7121 29.218 41.7121 24.002C41.7121 17.078 42.0941 12.608 38.7361 9.25203C35.3361 5.85203 30.7381 6.27803 23.9881 6.27803H23.9961ZM22.4081 9.47203C37.5561 9.44803 39.4841 7.76403 38.4201 31.158C38.0421 39.432 31.7421 38.524 23.9981 38.524C9.87812 38.524 9.47212 38.12 9.47212 23.994C9.47212 9.70403 10.5921 9.48003 22.4081 9.46803V9.47203ZM33.4561 12.414C32.2821 12.414 31.3301 13.366 31.3301 14.54C31.3301 15.714 32.2821 16.666 33.4561 16.666C34.6301 16.666 35.5821 15.714 35.5821 14.54C35.5821 13.366 34.6301 12.414 33.4561 12.414ZM23.9961 14.9C18.9701 14.9 14.8961 18.976 14.8961 24.002C14.8961 29.028 18.9701 33.102 23.9961 33.102C29.0221 33.102 33.0941 29.028 33.0941 24.002C33.0941 18.976 29.0221 14.9 23.9961 14.9ZM23.9961 18.094C31.8061 18.094 31.8161 29.91 23.9961 29.91C16.1881 29.91 16.1761 18.094 23.9961 18.094Z" fill="white"/>
</g>
<defs>
<linearGradient id="paint0_linear_122:1113" x1="3.09195" y1="44.9342" x2="47.7029" y2="6.32398" gradientUnits="userSpaceOnUse">
<stop stop-color="#FFDD55"/>
<stop offset="0.5" stop-color="#FF543E"/>
<stop offset="1" stop-color="#C837AB"/>
</linearGradient>
<clipPath id="clip0_122:1113">
<rect width="48" height="48" fill="white"/>
</clipPath>
</defs>
</svg>
