<?xml version="1.0" standalone="no"?>
<!DOCTYPE svg PUBLIC "-//W3C//DTD SVG 20010904//EN"
 "http://www.w3.org/TR/2001/REC-SVG-20010904/DTD/svg10.dtd">
<svg version="1.0" xmlns="http://www.w3.org/2000/svg"
 width="260.000000pt" height="260.000000pt" viewBox="0 0 260.000000 260.000000"
 preserveAspectRatio="xMidYMid meet">
<metadata>
Created by potrace 1.14, written by Peter Selinger 2001-2017
</metadata>
<g transform="translate(0.000000,260.000000) scale(0.100000,-0.100000)"
fill="#000000" stroke="none">
<path d="M205 2582 c-65 -22 -109 -54 -146 -105 -61 -85 -59 -35 -59 -1249 0
-1092 0 -1109 20 -1148 13 -26 34 -47 60 -60 39 -20 51 -20 1167 -18 1123 3
1128 3 1174 24 66 31 114 78 146 142 l28 57 3 1128 c2 1116 2 1128 -18 1167
-13 26 -34 47 -60 60 -39 20 -56 20 -1152 20 -1030 -1 -1117 -2 -1163 -18z
m985 -782 l0 -109 56 -3 57 -3 116 -255 115 -254 47 148 47 148 -46 100 c-36
78 -43 101 -32 108 16 10 218 12 243 2 15 -6 120 -224 233 -482 10 -22 18 -4
78 178 36 111 66 207 66 212 0 6 -32 10 -75 10 l-75 0 0 45 0 45 170 0 170 0
0 -45 0 -45 -48 0 -48 0 -33 -102 c-175 -547 -236 -718 -253 -718 -13 0 -35
36 -84 138 -167 351 -208 432 -213 427 -3 -3 -46 -131 -96 -283 -78 -237 -94
-277 -111 -280 -17 -2 -26 7 -42 45 -23 54 -103 223 -233 492 -49 101 -89 187
-89 191 0 4 -20 15 -44 24 -88 34 -173 138 -192 236 l-6 30 -74 0 -74 0 0
-215 0 -215 150 0 150 0 0 -55 0 -55 -150 0 -150 0 2 -177 3 -178 83 -3 82 -3
0 -49 0 -50 -315 0 -315 0 0 50 0 50 80 0 80 0 0 180 0 180 -80 0 -80 0 0 55
0 55 80 0 80 0 0 215 0 215 -80 0 -80 0 0 55 0 55 465 0 465 0 0 -110z"/>
</g>
</svg>
